<mxfile host="Electron" modified="2023-06-10T08:05:41.381Z" agent="Mozilla/5.0 (Windows NT 10.0; Win64; x64) AppleWebKit/537.36 (KHTML, like Gecko) draw.io/21.2.8 Chrome/112.0.5615.165 Electron/24.2.0 Safari/537.36" etag="b43fiTfbQ45fVlOA3KgC" version="21.2.8" type="device">
  <diagram id="C5RBs43oDa-KdzZeNtuy" name="Page-1">
    <mxGraphModel dx="938" dy="640" grid="1" gridSize="10" guides="1" tooltips="1" connect="1" arrows="1" fold="1" page="1" pageScale="1" pageWidth="827" pageHeight="1169" math="0" shadow="0">
      <root>
        <mxCell id="WIyWlLk6GJQsqaUBKTNV-0" />
        <mxCell id="WIyWlLk6GJQsqaUBKTNV-1" parent="WIyWlLk6GJQsqaUBKTNV-0" />
        <mxCell id="e3vY2lmSGExK8O4CjNd_-8" value="" style="edgeStyle=orthogonalEdgeStyle;rounded=0;orthogonalLoop=1;jettySize=auto;html=1;" parent="WIyWlLk6GJQsqaUBKTNV-1" source="e3vY2lmSGExK8O4CjNd_-0" target="e3vY2lmSGExK8O4CjNd_-1" edge="1">
          <mxGeometry relative="1" as="geometry" />
        </mxCell>
        <mxCell id="e3vY2lmSGExK8O4CjNd_-0" value="処理開始" style="strokeWidth=2;html=1;shape=mxgraph.flowchart.terminator;whiteSpace=wrap;" parent="WIyWlLk6GJQsqaUBKTNV-1" vertex="1">
          <mxGeometry x="240" y="80" width="120" height="50" as="geometry" />
        </mxCell>
        <mxCell id="e3vY2lmSGExK8O4CjNd_-12" value="" style="edgeStyle=orthogonalEdgeStyle;rounded=0;orthogonalLoop=1;jettySize=auto;html=1;" parent="WIyWlLk6GJQsqaUBKTNV-1" source="e3vY2lmSGExK8O4CjNd_-1" target="e3vY2lmSGExK8O4CjNd_-10" edge="1">
          <mxGeometry relative="1" as="geometry" />
        </mxCell>
        <mxCell id="e3vY2lmSGExK8O4CjNd_-1" value="会員情報入力" style="rounded=0;whiteSpace=wrap;html=1;" parent="WIyWlLk6GJQsqaUBKTNV-1" vertex="1">
          <mxGeometry x="240" y="160" width="120" height="40" as="geometry" />
        </mxCell>
        <mxCell id="e3vY2lmSGExK8O4CjNd_-13" value="" style="edgeStyle=orthogonalEdgeStyle;rounded=0;orthogonalLoop=1;jettySize=auto;html=1;" parent="WIyWlLk6GJQsqaUBKTNV-1" source="e3vY2lmSGExK8O4CjNd_-10" target="e3vY2lmSGExK8O4CjNd_-11" edge="1">
          <mxGeometry relative="1" as="geometry" />
        </mxCell>
        <mxCell id="e3vY2lmSGExK8O4CjNd_-10" value="Login クリック" style="rounded=0;whiteSpace=wrap;html=1;" parent="WIyWlLk6GJQsqaUBKTNV-1" vertex="1">
          <mxGeometry x="240" y="240" width="120" height="40" as="geometry" />
        </mxCell>
        <mxCell id="e3vY2lmSGExK8O4CjNd_-15" style="edgeStyle=orthogonalEdgeStyle;rounded=0;orthogonalLoop=1;jettySize=auto;html=1;exitX=0.5;exitY=1;exitDx=0;exitDy=0;exitPerimeter=0;entryX=0.5;entryY=0;entryDx=0;entryDy=0;entryPerimeter=0;" parent="WIyWlLk6GJQsqaUBKTNV-1" source="e3vY2lmSGExK8O4CjNd_-11" target="e3vY2lmSGExK8O4CjNd_-14" edge="1">
          <mxGeometry relative="1" as="geometry" />
        </mxCell>
        <mxCell id="e3vY2lmSGExK8O4CjNd_-17" style="edgeStyle=orthogonalEdgeStyle;rounded=0;orthogonalLoop=1;jettySize=auto;html=1;exitX=1;exitY=0.5;exitDx=0;exitDy=0;exitPerimeter=0;entryX=0.5;entryY=0;entryDx=0;entryDy=0;entryPerimeter=0;" parent="WIyWlLk6GJQsqaUBKTNV-1" source="e3vY2lmSGExK8O4CjNd_-11" edge="1">
          <mxGeometry relative="1" as="geometry">
            <mxPoint x="460" y="430" as="targetPoint" />
          </mxGeometry>
        </mxCell>
        <mxCell id="e3vY2lmSGExK8O4CjNd_-11" value="バリデーション&lt;br&gt;チェック" style="strokeWidth=2;html=1;shape=mxgraph.flowchart.decision;whiteSpace=wrap;fontSize=11;" parent="WIyWlLk6GJQsqaUBKTNV-1" vertex="1">
          <mxGeometry x="240" y="320" width="120" height="80" as="geometry" />
        </mxCell>
        <mxCell id="e3vY2lmSGExK8O4CjNd_-14" value="トップページ移動" style="strokeWidth=2;html=1;shape=mxgraph.flowchart.terminator;whiteSpace=wrap;" parent="WIyWlLk6GJQsqaUBKTNV-1" vertex="1">
          <mxGeometry x="240" y="430" width="120" height="50" as="geometry" />
        </mxCell>
        <mxCell id="e3vY2lmSGExK8O4CjNd_-18" value="エラー出力" style="rounded=0;whiteSpace=wrap;html=1;" parent="WIyWlLk6GJQsqaUBKTNV-1" vertex="1">
          <mxGeometry x="400" y="440" width="120" height="40" as="geometry" />
        </mxCell>
        <mxCell id="e3vY2lmSGExK8O4CjNd_-24" style="edgeStyle=orthogonalEdgeStyle;rounded=0;orthogonalLoop=1;jettySize=auto;html=1;exitX=0.5;exitY=1;exitDx=0;exitDy=0;exitPerimeter=0;entryX=0.5;entryY=0;entryDx=0;entryDy=0;" parent="WIyWlLk6GJQsqaUBKTNV-1" source="e3vY2lmSGExK8O4CjNd_-19" target="e3vY2lmSGExK8O4CjNd_-20" edge="1">
          <mxGeometry relative="1" as="geometry" />
        </mxCell>
        <mxCell id="e3vY2lmSGExK8O4CjNd_-19" value="処理開始" style="strokeWidth=2;html=1;shape=mxgraph.flowchart.terminator;whiteSpace=wrap;" parent="WIyWlLk6GJQsqaUBKTNV-1" vertex="1">
          <mxGeometry x="560" y="80" width="120" height="50" as="geometry" />
        </mxCell>
        <mxCell id="e3vY2lmSGExK8O4CjNd_-25" style="edgeStyle=orthogonalEdgeStyle;rounded=0;orthogonalLoop=1;jettySize=auto;html=1;exitX=0.5;exitY=1;exitDx=0;exitDy=0;entryX=0.5;entryY=0;entryDx=0;entryDy=0;entryPerimeter=0;" parent="WIyWlLk6GJQsqaUBKTNV-1" source="e3vY2lmSGExK8O4CjNd_-20" target="e3vY2lmSGExK8O4CjNd_-21" edge="1">
          <mxGeometry relative="1" as="geometry" />
        </mxCell>
        <mxCell id="e3vY2lmSGExK8O4CjNd_-20" value="パスワード忘れた方&lt;br style=&quot;font-size: 11px;&quot;&gt;クリック" style="rounded=0;whiteSpace=wrap;html=1;fontSize=11;" parent="WIyWlLk6GJQsqaUBKTNV-1" vertex="1">
          <mxGeometry x="560" y="160" width="120" height="40" as="geometry" />
        </mxCell>
        <mxCell id="e3vY2lmSGExK8O4CjNd_-21" value="パスワード再発行&lt;br style=&quot;font-size: 11px;&quot;&gt;画面へ移動" style="strokeWidth=2;html=1;shape=mxgraph.flowchart.terminator;whiteSpace=wrap;fontSize=11;" parent="WIyWlLk6GJQsqaUBKTNV-1" vertex="1">
          <mxGeometry x="560" y="235" width="120" height="50" as="geometry" />
        </mxCell>
        <mxCell id="u_5vmUq0hf3makYhZc-7-10" style="edgeStyle=orthogonalEdgeStyle;rounded=0;orthogonalLoop=1;jettySize=auto;html=1;entryX=0.5;entryY=0;entryDx=0;entryDy=0;" parent="WIyWlLk6GJQsqaUBKTNV-1" source="u_5vmUq0hf3makYhZc-7-0" target="u_5vmUq0hf3makYhZc-7-1" edge="1">
          <mxGeometry relative="1" as="geometry" />
        </mxCell>
        <mxCell id="u_5vmUq0hf3makYhZc-7-0" value="処理開始" style="strokeWidth=2;html=1;shape=mxgraph.flowchart.terminator;whiteSpace=wrap;" parent="WIyWlLk6GJQsqaUBKTNV-1" vertex="1">
          <mxGeometry x="240" y="630" width="120" height="50" as="geometry" />
        </mxCell>
        <mxCell id="u_5vmUq0hf3makYhZc-7-11" style="edgeStyle=orthogonalEdgeStyle;rounded=0;orthogonalLoop=1;jettySize=auto;html=1;" parent="WIyWlLk6GJQsqaUBKTNV-1" source="u_5vmUq0hf3makYhZc-7-1" target="u_5vmUq0hf3makYhZc-7-2" edge="1">
          <mxGeometry relative="1" as="geometry" />
        </mxCell>
        <mxCell id="u_5vmUq0hf3makYhZc-7-1" value="学習コース クリック" style="rounded=0;whiteSpace=wrap;html=1;" parent="WIyWlLk6GJQsqaUBKTNV-1" vertex="1">
          <mxGeometry x="240" y="720" width="120" height="40" as="geometry" />
        </mxCell>
        <mxCell id="u_5vmUq0hf3makYhZc-7-2" value="学習コース&lt;br&gt;トップページ移動" style="strokeWidth=2;html=1;shape=mxgraph.flowchart.terminator;whiteSpace=wrap;" parent="WIyWlLk6GJQsqaUBKTNV-1" vertex="1">
          <mxGeometry x="240" y="790" width="120" height="50" as="geometry" />
        </mxCell>
        <mxCell id="u_5vmUq0hf3makYhZc-7-9" value="" style="edgeStyle=orthogonalEdgeStyle;rounded=0;orthogonalLoop=1;jettySize=auto;html=1;entryX=0.5;entryY=0;entryDx=0;entryDy=0;" parent="WIyWlLk6GJQsqaUBKTNV-1" source="u_5vmUq0hf3makYhZc-7-3" target="u_5vmUq0hf3makYhZc-7-4" edge="1">
          <mxGeometry relative="1" as="geometry">
            <mxPoint x="500" y="720" as="targetPoint" />
          </mxGeometry>
        </mxCell>
        <mxCell id="u_5vmUq0hf3makYhZc-7-3" value="処理開始" style="strokeWidth=2;html=1;shape=mxgraph.flowchart.terminator;whiteSpace=wrap;" parent="WIyWlLk6GJQsqaUBKTNV-1" vertex="1">
          <mxGeometry x="441" y="630" width="120" height="50" as="geometry" />
        </mxCell>
        <mxCell id="u_5vmUq0hf3makYhZc-7-7" style="edgeStyle=orthogonalEdgeStyle;rounded=0;orthogonalLoop=1;jettySize=auto;html=1;exitX=0.5;exitY=1;exitDx=0;exitDy=0;" parent="WIyWlLk6GJQsqaUBKTNV-1" source="u_5vmUq0hf3makYhZc-7-4" target="u_5vmUq0hf3makYhZc-7-6" edge="1">
          <mxGeometry relative="1" as="geometry" />
        </mxCell>
        <mxCell id="u_5vmUq0hf3makYhZc-7-4" value="ユーザー名 クリック" style="rounded=0;whiteSpace=wrap;html=1;" parent="WIyWlLk6GJQsqaUBKTNV-1" vertex="1">
          <mxGeometry x="441" y="720" width="120" height="40" as="geometry" />
        </mxCell>
        <mxCell id="u_5vmUq0hf3makYhZc-7-5" value="マイページ移動" style="strokeWidth=2;html=1;shape=mxgraph.flowchart.terminator;whiteSpace=wrap;" parent="WIyWlLk6GJQsqaUBKTNV-1" vertex="1">
          <mxGeometry x="441" y="880" width="120" height="50" as="geometry" />
        </mxCell>
        <mxCell id="u_5vmUq0hf3makYhZc-7-8" style="edgeStyle=orthogonalEdgeStyle;rounded=0;orthogonalLoop=1;jettySize=auto;html=1;exitX=0.5;exitY=1;exitDx=0;exitDy=0;entryX=0.5;entryY=0;entryDx=0;entryDy=0;entryPerimeter=0;" parent="WIyWlLk6GJQsqaUBKTNV-1" source="u_5vmUq0hf3makYhZc-7-6" target="u_5vmUq0hf3makYhZc-7-5" edge="1">
          <mxGeometry relative="1" as="geometry" />
        </mxCell>
        <mxCell id="u_5vmUq0hf3makYhZc-7-6" value="&amp;nbsp;マイページ&lt;br&gt;クリック" style="rounded=0;whiteSpace=wrap;html=1;" parent="WIyWlLk6GJQsqaUBKTNV-1" vertex="1">
          <mxGeometry x="440" y="800" width="121" height="40" as="geometry" />
        </mxCell>
        <mxCell id="u_5vmUq0hf3makYhZc-7-19" value="" style="edgeStyle=orthogonalEdgeStyle;rounded=0;orthogonalLoop=1;jettySize=auto;html=1;" parent="WIyWlLk6GJQsqaUBKTNV-1" source="u_5vmUq0hf3makYhZc-7-14" target="u_5vmUq0hf3makYhZc-7-15" edge="1">
          <mxGeometry relative="1" as="geometry" />
        </mxCell>
        <mxCell id="u_5vmUq0hf3makYhZc-7-14" value="処理開始" style="strokeWidth=2;html=1;shape=mxgraph.flowchart.terminator;whiteSpace=wrap;" parent="WIyWlLk6GJQsqaUBKTNV-1" vertex="1">
          <mxGeometry x="640" y="630" width="120" height="50" as="geometry" />
        </mxCell>
        <mxCell id="u_5vmUq0hf3makYhZc-7-20" value="" style="edgeStyle=orthogonalEdgeStyle;rounded=0;orthogonalLoop=1;jettySize=auto;html=1;" parent="WIyWlLk6GJQsqaUBKTNV-1" source="u_5vmUq0hf3makYhZc-7-15" target="u_5vmUq0hf3makYhZc-7-16" edge="1">
          <mxGeometry relative="1" as="geometry" />
        </mxCell>
        <mxCell id="u_5vmUq0hf3makYhZc-7-15" value="ユーザー名 クリック" style="rounded=0;whiteSpace=wrap;html=1;" parent="WIyWlLk6GJQsqaUBKTNV-1" vertex="1">
          <mxGeometry x="640" y="720" width="120" height="40" as="geometry" />
        </mxCell>
        <mxCell id="u_5vmUq0hf3makYhZc-7-21" value="" style="edgeStyle=orthogonalEdgeStyle;rounded=0;orthogonalLoop=1;jettySize=auto;html=1;" parent="WIyWlLk6GJQsqaUBKTNV-1" source="u_5vmUq0hf3makYhZc-7-16" target="u_5vmUq0hf3makYhZc-7-17" edge="1">
          <mxGeometry relative="1" as="geometry" />
        </mxCell>
        <mxCell id="u_5vmUq0hf3makYhZc-7-16" value="&amp;nbsp;ログアウト&lt;br&gt;クリック" style="rounded=0;whiteSpace=wrap;html=1;" parent="WIyWlLk6GJQsqaUBKTNV-1" vertex="1">
          <mxGeometry x="639" y="800" width="121" height="40" as="geometry" />
        </mxCell>
        <mxCell id="u_5vmUq0hf3makYhZc-7-22" value="" style="edgeStyle=orthogonalEdgeStyle;rounded=0;orthogonalLoop=1;jettySize=auto;html=1;" parent="WIyWlLk6GJQsqaUBKTNV-1" source="u_5vmUq0hf3makYhZc-7-17" target="u_5vmUq0hf3makYhZc-7-18" edge="1">
          <mxGeometry relative="1" as="geometry" />
        </mxCell>
        <mxCell id="u_5vmUq0hf3makYhZc-7-17" value="ログアウト処理" style="strokeWidth=2;html=1;shape=mxgraph.flowchart.terminator;whiteSpace=wrap;" parent="WIyWlLk6GJQsqaUBKTNV-1" vertex="1">
          <mxGeometry x="639" y="880" width="120" height="50" as="geometry" />
        </mxCell>
        <mxCell id="u_5vmUq0hf3makYhZc-7-18" value="ログイン&lt;br&gt;ページ移動" style="strokeWidth=2;html=1;shape=mxgraph.flowchart.terminator;whiteSpace=wrap;" parent="WIyWlLk6GJQsqaUBKTNV-1" vertex="1">
          <mxGeometry x="639" y="960" width="120" height="50" as="geometry" />
        </mxCell>
        <mxCell id="ZsMw7-FSVd7Au33mnYeD-4" value="" style="edgeStyle=orthogonalEdgeStyle;rounded=0;orthogonalLoop=1;jettySize=auto;html=1;" edge="1" parent="WIyWlLk6GJQsqaUBKTNV-1" source="ZsMw7-FSVd7Au33mnYeD-0" target="ZsMw7-FSVd7Au33mnYeD-2">
          <mxGeometry relative="1" as="geometry" />
        </mxCell>
        <mxCell id="ZsMw7-FSVd7Au33mnYeD-0" value="処理開始" style="strokeWidth=2;html=1;shape=mxgraph.flowchart.terminator;whiteSpace=wrap;" vertex="1" parent="WIyWlLk6GJQsqaUBKTNV-1">
          <mxGeometry x="100" y="1190" width="120" height="50" as="geometry" />
        </mxCell>
        <mxCell id="ZsMw7-FSVd7Au33mnYeD-5" value="" style="edgeStyle=orthogonalEdgeStyle;rounded=0;orthogonalLoop=1;jettySize=auto;html=1;" edge="1" parent="WIyWlLk6GJQsqaUBKTNV-1" source="ZsMw7-FSVd7Au33mnYeD-2" target="ZsMw7-FSVd7Au33mnYeD-3">
          <mxGeometry relative="1" as="geometry" />
        </mxCell>
        <mxCell id="ZsMw7-FSVd7Au33mnYeD-2" value="カリキュラム&lt;br&gt;クリック" style="rounded=0;whiteSpace=wrap;html=1;" vertex="1" parent="WIyWlLk6GJQsqaUBKTNV-1">
          <mxGeometry x="100" y="1280" width="120" height="40" as="geometry" />
        </mxCell>
        <mxCell id="ZsMw7-FSVd7Au33mnYeD-3" value="学習内容移動" style="strokeWidth=2;html=1;shape=mxgraph.flowchart.terminator;whiteSpace=wrap;" vertex="1" parent="WIyWlLk6GJQsqaUBKTNV-1">
          <mxGeometry x="100" y="1360" width="120" height="50" as="geometry" />
        </mxCell>
        <mxCell id="ZsMw7-FSVd7Au33mnYeD-9" value="" style="edgeStyle=orthogonalEdgeStyle;rounded=0;orthogonalLoop=1;jettySize=auto;html=1;" edge="1" parent="WIyWlLk6GJQsqaUBKTNV-1" source="ZsMw7-FSVd7Au33mnYeD-6" target="ZsMw7-FSVd7Au33mnYeD-7">
          <mxGeometry relative="1" as="geometry" />
        </mxCell>
        <mxCell id="ZsMw7-FSVd7Au33mnYeD-6" value="処理開始" style="strokeWidth=2;html=1;shape=mxgraph.flowchart.terminator;whiteSpace=wrap;" vertex="1" parent="WIyWlLk6GJQsqaUBKTNV-1">
          <mxGeometry x="280" y="1190" width="120" height="50" as="geometry" />
        </mxCell>
        <mxCell id="ZsMw7-FSVd7Au33mnYeD-10" value="" style="edgeStyle=orthogonalEdgeStyle;rounded=0;orthogonalLoop=1;jettySize=auto;html=1;" edge="1" parent="WIyWlLk6GJQsqaUBKTNV-1" source="ZsMw7-FSVd7Au33mnYeD-7" target="ZsMw7-FSVd7Au33mnYeD-8">
          <mxGeometry relative="1" as="geometry" />
        </mxCell>
        <mxCell id="ZsMw7-FSVd7Au33mnYeD-7" value="学習ステータス&lt;br&gt;ボタンクリック" style="rounded=0;whiteSpace=wrap;html=1;" vertex="1" parent="WIyWlLk6GJQsqaUBKTNV-1">
          <mxGeometry x="280" y="1280" width="120" height="40" as="geometry" />
        </mxCell>
        <mxCell id="ZsMw7-FSVd7Au33mnYeD-8" value="未学習／完了&lt;br&gt;表示切替" style="strokeWidth=2;html=1;shape=mxgraph.flowchart.terminator;whiteSpace=wrap;" vertex="1" parent="WIyWlLk6GJQsqaUBKTNV-1">
          <mxGeometry x="280" y="1360" width="120" height="50" as="geometry" />
        </mxCell>
      </root>
    </mxGraphModel>
  </diagram>
</mxfile>
